PathFileType	3	(X/Y/Z)	D:\Jess\Healthy\Labelled\HA22\20251031\SRRun01.trc
DataRate	CameraRate	NumFrames	NumMarkers	Units	OrigDataRate	OrigDataStartFrame	OrigNumFrames
250.0	250.0	4	37	mm	250.0	35625	2501
Frame#	Time	C7			T10			CLAV			LSHO			RSHO			LASIS			RASIS			LPSIS			RPSIS			LILCR			RILCR			LGTR			LTHI			LLTHI			LLEP			LMEP			LPSH			LLSH			LDSH			LLMAL			LMMAL			LTOE			L5TH			LHEE			RGTR			RTHI			RLTHI			RLEP			RMEP			RPSH			RLSH			RDSH			RLMAL			RMMAL			RTOE			R5TH			RHEE			
		X1	Y1	Z1	X2	Y2	Z2	X3	Y3	Z3	X4	Y4	Z4	X5	Y5	Z5	X6	Y6	Z6	X7	Y7	Z7	X8	Y8	Z8	X9	Y9	Z9	X10	Y10	Z10	X11	Y11	Z11	X12	Y12	Z12	X13	Y13	Z13	X14	Y14	Z14	X15	Y15	Z15	X16	Y16	Z16	X17	Y17	Z17	X18	Y18	Z18	X19	Y19	Z19	X20	Y20	Z20	X21	Y21	Z21	X22	Y22	Z22	X23	Y23	Z23	X24	Y24	Z24	X25	Y25	Z25	X26	Y26	Z26	X27	Y27	Z27	X28	Y28	Z28	X29	Y29	Z29	X30	Y30	Z30	X31	Y31	Z31	X32	Y32	Z32	X33	Y33	Z33	X34	Y34	Z34	X35	Y35	Z35	X36	Y36	Z36	X37	Y37	Z37	

626	142.496	808.7043670882794	1613.776429498906	-874.192233614096	796.5976622218367	1364.847506613713	-803.0091387340385	849.5498660550467	1524.769470352927	-1011.969942547256	669.714617158192	1619.446627791549	-975.1886634348288	981.1485768540684	1618.718247280111	-896.9925671910743	723.2985380984697	1088.653751288528	-958.9845266623307	942.2702931614912	1112.972424843852	-939.270553048627	802.2393725486531	1155.139817973509	-769.8750793634446	844.0641291247158	1158.58850330795	-761.4431834078556	676.3412359293727	1180.75179861562	-910.4927259107035	989.5582239582301	1202.663561838547	-875.6860007713649	649.8732382719251	953.1509032590279	-858.3244053362383	740.4338320887349	787.5255444189296	-893.433124773769	670.229922186135	758.77275937024	-748.9867145455125	691.3908513615966	626.5724555803675	-663.8800657654466	nan	nan	nan	742.6223126684813	494.1612843390557	-657.4122151292104	691.4685446743989	440.9064817277819	-527.7142513262955	747.0471853708335	332.2308938940595	-535.0609954546388	719.5522723953933	255.0464510110712	-415.5359926478006	nan	nan	nan	745.8101690089289	92.67536991615269	-475.8812128779902	706.0987057696469	102.992943760419	-422.4013340302728	780.733337645482	297.7243516344816	-340.4716042090499	1020.932932368784	992.5721636533746	-891.4584107147683	932.1025982086742	902.6247872390339	-1067.320278412032	1000.743781533937	803.30229293615	-1019.3367012812	970.7988141783092	651.7627293004196	-1054.377079647057	nan	nan	nan	914.141162179997	528.2484665596404	-1082.129914123413	976.3863627207033	456.0670530680146	-974.7626881659364	905.3533142069806	350.0988065622312	-993.0837862146988	939.509243595873	236.001484148786	-889.6155911366621	nan	nan	nan	925.1565428067621	142.2938206795959	-1025.682267875882	966.0540688800613	124.6624732717045	-973.3443666923796	879.7194059443073	224.0731550116534	-802.1116565889985	
627	142.5	809.2951232284543	1615.248538192785	-874.3510298006039	796.7072986453842	1366.41829409621	-803.6268203890445	850.2200932202569	1526.636661839323	-1011.984274404874	670.6280531367695	1621.384130856116	-975.2964300199833	981.5908378502982	1620.285387511617	-896.9610268486912	723.6540539668969	1089.759031089335	-959.899014350996	942.2544498107161	1114.578025032132	-939.8815464234998	801.7655984087679	1157.227946416674	-770.9326874190384	843.5727424335709	1160.676558614872	-762.4223248292976	676.6433269078708	1182.365646111692	-911.9622032197905	989.4603109567519	1204.696773630882	-876.6945936481633	649.8258834020988	954.6786383993664	-858.8101030866063	740.7668134040767	788.8478906138702	-892.468480241473	670.1093073254311	761.2203480461043	-747.9165587791261	691.1000298406204	629.5208741808921	-661.88923316027	nan	nan	nan	742.079790553121	497.0939404283615	-654.0573590590436	690.6644608006563	445.0545861300287	-523.8772911236932	746.194153826463	336.3430634419469	-530.1143361838726	718.5686739297298	260.4770657800781	-409.9392466991829	nan	nan	nan	744.2993523957335	97.27423162845602	-468.0476238411296	704.9606890199004	108.2939157678043	-414.4363760004945	779.8932443652948	304.3953095170532	-335.7504881853764	1020.944403935801	994.4310223955238	-891.4644425109528	932.5048713270342	902.927621607734	-1067.182641131267	999.5841003218355	803.5220991110859	-1017.215617871445	970.2023425440359	651.1897041733669	-1051.486760839904	nan	nan	nan	914.3083511791665	527.8215077608199	-1082.757874856632	976.3940065404261	452.1718631136528	-977.8174881050498	905.7377318306602	346.5991212432319	-1000.276674209843	939.7011860326479	228.9578630390442	-900.9683527269099	nan	nan	nan	925.4694699368673	139.6690428306974	-1040.039008097851	966.2759709281694	120.3009996992366	-988.2518245992532	879.8047521077083	214.2103128570847	-814.1101597557315	
628	142.504	809.8927775396519	1616.567423195772	-874.5185940875768	796.8863400365574	1367.850849252068	-804.187643627739	850.8746928965953	1528.298372323895	-1012.017955121653	671.5154576750286	1623.130498220238	-975.3879794210883	982.0451656711098	1621.666833780525	-896.9672333206563	723.9889376086379	1090.770949931587	-960.7599844677486	942.2437535972941	1115.989302763673	-940.4655352975843	801.2812850080334	1159.07832791238	-771.9185101255289	843.0758971184887	1162.50751528663	-763.3491766789233	676.9219708715992	1183.78834252207	-913.3740994563101	989.3741031398454	1206.440608561187	-877.6254582030182	649.7642889534044	956.0528074970902	-859.3365497966539	741.1898472286603	790.0979366006238	-891.6870972951913	670.0317280791072	763.4140460776605	-747.1198829243829	690.8770215887249	632.179402379407	-660.2886351480703	nan	nan	nan	741.6200853867282	499.7948575420602	-650.9174226649351	689.9137028817045	449.1288619834744	-520.210958653759	745.4098153789538	340.4221711019974	-525.1793773987798	717.6481130341767	266.0029949558304	-404.2208455376941	nan	nan	nan	742.7129067324812	102.0914825890322	-460.3432770486987	703.7345941715845	113.7890784522948	-406.6010497684354	779.1817782252976	310.935070732851	-330.8403937594273	1020.927354317789	995.9791059050907	-891.4493916352619	932.893126794999	902.7755310667864	-1066.934157968783	998.4670906348533	803.3822757966865	-1014.939447615796	969.6128728653925	650.3044004177816	-1048.446756355534	nan	nan	nan	914.4359149192001	527.2049915066486	-1083.156917788589	976.3933483949706	448.2032045053548	-980.777442280025	906.0922275628195	343.1917649442153	-1007.333396732108	939.893754918332	222.1907444731359	-912.3015218588206	nan	nan	nan	925.7828375848618	137.3634581278138	-1054.210065753076	966.5164069852653	116.306558966504	-1003.027250402044	879.9120463170431	204.6985539337565	-826.1397456589386	
629	142.508	810.4988433354484	1617.732667214769	-874.6947797164983	797.1341515532856	1369.140941348835	-804.6890053922224	851.5137606216508	1529.752536718818	-1012.06991080788	672.3766045009481	1624.68443001718	-975.4612827940119	982.5137240035913	1622.859617829341	-897.0100541011703	724.2979796817067	1091.693872017308	-961.5663584443388	942.2335161194101	1117.206688930509	-941.022736884405	800.7980734520518	1160.684297182198	-772.8287010236188	842.5853938201611	1164.075558755114	-764.2189091034802	677.1790225884369	1185.028438574511	-914.7201527391449	989.3024223467394	1207.890884500297	-878.4743259114271	649.6899901334502	957.2740284827526	-859.9023329455373	741.6863409718632	791.2651003122204	-891.1040976803433	669.9924765516317	765.3459988562626	-746.5966182469413	690.7238210628108	634.545280971397	-659.0720407816162	nan	nan	nan	741.2396503733014	502.2635118681479	-647.9865687064222	689.2187723133101	453.1367024735547	-516.7084202113394	744.6877745132789	344.4687500788918	-520.2617093223995	716.7874624692512	271.6208668533681	-398.3935159418843	nan	nan	nan	741.0589228992371	107.1027507061305	-452.7623531376811	702.4236204245078	119.4612263680056	-398.8950224285159	778.5911307039422	317.3545513146095	-325.7493151331124	1020.881514906312	997.2115953827722	-891.4220647671909	933.2469439142914	902.1610397105123	-1066.558954736244	997.4287802627273	802.8906076721867	-1012.534007348616	969.0400482908816	649.1210216409102	-1045.280398415794	nan	nan	nan	914.5127129882942	526.4107098766922	-1083.333510348444	976.3821718312653	444.1826816645847	-983.6451032422468	906.4039617088403	339.8980122495216	-1014.232397888772	940.0796088960617	215.7273165743332	-923.5748394675426	nan	nan	nan	926.0918120516038	135.3762832503893	-1068.149127073371	966.7690831567976	112.6857656605326	-1017.617903527491	880.0315860617945	195.5790664219078	-838.1491749658514	
